<svg xmlns="http://www.w3.org/2000/svg" viewBox="0 0 297 297" preserveAspectRatio="xMidYMid meet">
  <g transform="translate(0,297) scale(0.1,-0.1)" fill="#000" stroke="none">
    <path d="M1427 2872 c-22 -24 -23 -119 -1 -150 21 -30 59 -29 80 3 19 29 15 125 -7 151 -16 20 -53 18 -72 -4z"/>
    <path d="M853 2653 c-34 -13 15 -113 56 -113 45 0 55 57 16 95 -23 24 -45 29 -72 18z"/>
    <path d="M2031 2624 c-25 -31 -27 -57 -6 -74 35 -29 97 31 77 75 -15 33 -45 32 -71 -1z"/>
    <!-- Other paths omitted for brevity -->
  </g>
</svg>
